<svg xmlns="http://www.w3.org/2000/svg" version="1.1" xmlns:xlink="http://www.w3.org/1999/xlink" width="120" height="124"><svg width="120" height="124" viewBox="0 0 120 124" fill="none" xmlns="http://www.w3.org/2000/svg">
<path fill-rule="evenodd" clip-rule="evenodd" d="M1.11014 71.4308C0.446874 68.0269 0.0767214 64.5585 0.0107247 61.0636C-0.191019 50.38 2.45676 39.8366 7.67976 30.5256C12.9028 21.2146 20.511 13.4746 29.7163 8.10761C38.9216 2.7406 49.3891 -0.0582814 60.0345 0.000920033C70.6799 0.0601215 81.1159 2.97525 90.2614 8.44432C99.4069 13.9134 106.929 21.7375 112.049 31.106C117.169 40.4745 119.7 51.0467 119.381 61.7274C119.276 65.2214 118.868 68.6854 118.167 72.0818C116.725 79.0676 114.047 85.767 110.231 91.8519L92.7958 80.836C92.7982 80.8321 92.8007 80.8282 92.8031 80.8244C96.5126 74.9044 98.5789 68.097 98.7882 61.1065C98.9975 54.1113 97.3397 47.1872 93.9865 41.0514C90.6333 34.9156 85.7067 29.7914 79.717 26.2095C73.7273 22.6276 66.8924 20.7184 59.9204 20.6796C52.9483 20.6409 46.0928 22.4739 40.0639 25.989C34.035 29.504 29.0521 34.5732 25.6314 40.6713C22.2107 46.7694 20.4766 53.6746 20.6087 60.6717C20.7408 67.6687 22.7344 74.5031 26.3829 80.4667L8.82717 91.288C5.07877 85.161 2.47441 78.4322 1.11014 71.4308Z" fill="#BCD0FF"></path>
<path fill-rule="evenodd" clip-rule="evenodd" d="M59.7033 68.8889L112.06 103.242C117.127 106.566 118.633 113.517 115.424 118.767C112.215 124.017 105.505 125.577 100.438 122.253L59.7033 95.5255L18.9689 122.253C13.9015 125.577 7.19197 124.017 3.98265 118.767C0.773329 113.517 2.27956 106.566 7.34691 103.242L59.7033 68.8889Z" fill="#2856FF"></path>
</svg><style>@media (prefers-color-scheme: light) { :root { filter: none; } }
@media (prefers-color-scheme: dark) { :root { filter: none; } }
</style></svg>