<svg width="393" height="424" viewBox="0 0 393 424" fill="none" xmlns="http://www.w3.org/2000/svg">
<g clip-path="url(#clip0_2209_1842)">
<path d="M0 0H393V404.8C393 411.521 393 414.881 391.692 417.448C390.542 419.706 388.706 421.542 386.448 422.692C383.881 424 380.521 424 373.8 424H19.2C12.4794 424 9.11905 424 6.55211 422.692C4.29417 421.542 2.4584 419.706 1.30792 417.448C0 414.881 0 411.521 0 404.8V0Z" fill="#19238F"/>
<ellipse cx="412" cy="494" rx="308" ry="307" fill="url(#paint0_linear_2209_1842)"/>
<circle cx="148" cy="494" r="307" fill="url(#paint1_linear_2209_1842)"/>
<ellipse cx="-117" cy="494" rx="308" ry="307" fill="url(#paint2_linear_2209_1842)"/>
</g>
<defs>
<linearGradient id="paint0_linear_2209_1842" x1="104" y1="494" x2="720" y2="494" gradientUnits="userSpaceOnUse">
<stop stop-color="#1722B6" stop-opacity="0"/>
<stop offset="1" stop-color="#1722B6"/>
</linearGradient>
<linearGradient id="paint1_linear_2209_1842" x1="-159" y1="494" x2="455" y2="494" gradientUnits="userSpaceOnUse">
<stop stop-color="#1722B6" stop-opacity="0"/>
<stop offset="1" stop-color="#1722B6"/>
</linearGradient>
<linearGradient id="paint2_linear_2209_1842" x1="-425" y1="494" x2="191" y2="494" gradientUnits="userSpaceOnUse">
<stop stop-color="#1722B6" stop-opacity="0"/>
<stop offset="1" stop-color="#1722B6"/>
</linearGradient>
<clipPath id="clip0_2209_1842">
<path d="M0 0H393V404.8C393 411.521 393 414.881 391.692 417.448C390.542 419.706 388.706 421.542 386.448 422.692C383.881 424 380.521 424 373.8 424H19.2C12.4794 424 9.11905 424 6.55211 422.692C4.29417 421.542 2.4584 419.706 1.30792 417.448C0 414.881 0 411.521 0 404.8V0Z" fill="white"/>
</clipPath>
</defs>
</svg>
